<?xml version="1.0" standalone="no"?>
<!DOCTYPE svg PUBLIC "-//W3C//DTD SVG 1.1//EN" "http://www.w3.org/Graphics/SVG/1.1/DTD/svg11.dtd" >
<svg xmlns="http://www.w3.org/2000/svg" xmlns:xlink="http://www.w3.org/1999/xlink" version="1.1">
<metadata></metadata>
<defs>
<font id="oktabold_italic" horiz-adv-x="1290" >
<font-face units-per-em="2048" ascent="1536" descent="-512" />
<missing-glyph horiz-adv-x="595" />
<glyph horiz-adv-x="0" />
<glyph horiz-adv-x="682" />
<glyph unicode=" "  horiz-adv-x="595" />
<glyph unicode="&#x09;" horiz-adv-x="595" />
<glyph unicode="&#xa0;" horiz-adv-x="595" />
<glyph unicode="!" horiz-adv-x="452" d="M4 143q9 63 66.5 110.5t124.5 47.5q66 0 107 -47.5t32 -110.5q-10 -70 -67.5 -118t-125.5 -48t-107.5 48t-29.5 118zM61 438l160 996h303l-157 -996h-306z" />
<glyph unicode="&#x22;" horiz-adv-x="690" d="M147 926l62 508h250l-109 -508h-203zM465 926l61 508h250l-106 -508h-205z" />
<glyph unicode="#" horiz-adv-x="1787" d="M4 152l123 280h289l119 281h-295l127 282l290 2l142 332h280l-141 -332h303l141 332h281l-141 -332h282l-125 -282h-280l-119 -281h287l-123 -280l-285 -2l-139 -326h-281l140 326h-304l-139 -326h-280l139 326h-291zM696 432l303 2l119 281l-303 -2z" />
<glyph unicode="$" horiz-adv-x="1273" d="M61 346l301 80q15 -61 62 -105t115 -59l51 328q-179 47 -252 96q-77 55 -119.5 142.5t-25.5 193.5q28 187 172.5 304t361.5 128l18 121h119l-20 -125q160 -22 268 -115.5t131 -230.5l-293 -82q-11 60 -49 101.5t-98 56.5l-53 -338q119 -30 165 -51q136 -55 207 -149 t52 -228q-28 -195 -177.5 -310t-384.5 -124l-18 -121h-119l21 125q-174 20 -288 116.5t-147 245.5zM504 1026q-10 -59 25.5 -94t105.5 -58l49 310q-75 -12 -123 -55.5t-57 -102.5zM657 256q80 11 131 54t58 108q6 52 -30.5 83.5t-110.5 55.5z" />
<glyph unicode="%" horiz-adv-x="1740" d="M193 1073q24 158 129 259.5t260 101.5q146 0 223 -102.5t53 -258.5q-25 -160 -130 -261t-259 -101q-148 0 -224.5 102.5t-51.5 259.5zM322 -41l935 1516h224l-936 -1516h-223zM375 1073q-11 -74 22.5 -121t102.5 -47t116.5 47t59.5 121q11 74 -22.5 121t-102.5 47 t-117 -47.5t-59 -120.5zM948 362q26 159 130 260t259 101q147 0 225.5 -103t53.5 -258q-25 -159 -131 -260.5t-260 -101.5q-148 0 -224.5 102.5t-52.5 259.5zM1133 362q-12 -74 20.5 -120.5t101.5 -46.5t117.5 47t59.5 120q11 74 -21.5 121t-101.5 47t-116.5 -47t-59.5 -121 z" />
<glyph unicode="&#x26;" horiz-adv-x="1421" d="M20 324q12 74 45.5 138.5t89 118.5t113 96.5t138.5 90.5q-147 208 -121 365q22 141 144.5 243.5t307.5 102.5q89 0 160 -29.5t112 -77.5t58.5 -108t7.5 -121q-18 -119 -97 -217t-226 -197l188 -248q65 78 96 158l312 -4q-101 -217 -244 -379l188 -256h-315l-62 80 q-202 -158 -458 -158q-97 0 -182 27t-147.5 76t-92.5 127t-15 172zM334 358q-12 -73 40.5 -120.5t139.5 -47.5q63 0 128.5 26t117.5 73l-223 293q-48 -33 -71 -50t-57.5 -48t-52 -61.5t-22.5 -64.5zM543 1118q-5 -33 9.5 -74t31 -68t49.5 -75q91 66 132.5 117.5t49.5 103.5 q8 55 -20 92t-93 37q-58 0 -104 -38.5t-55 -94.5z" />
<glyph unicode="'" horiz-adv-x="372" d="M147 926l62 508h250l-109 -508h-203z" />
<glyph unicode="(" horiz-adv-x="536" d="M68 229.5q-4 231.5 25 471t97.5 482.5t167.5 441h310q-99 -199 -169 -441.5t-102.5 -481.5t-31 -471.5t40.5 -419.5h-295q-39 188 -43 419.5z" />
<glyph unicode=")" horiz-adv-x="536" d="M-66 -190q99 199 169 441.5t103 481.5t31.5 471.5t-40.5 419.5h295q39 -188 43 -419.5t-25.5 -471t-98 -482.5t-167.5 -441h-310z" />
<glyph unicode="*" horiz-adv-x="741" d="M186 1264l23 141l205 -12l-86 172l133 69l57 -186l125 184l111 -69l-142 -172l205 16l-22 -141l-197 10l78 -170l-133 -70l-58 183l-127 -185l-110 70l143 172z" />
<glyph unicode="+" horiz-adv-x="972" d="M90 565l41 252h277l45 277h254l-45 -277h276l-39 -252h-276l-45 -276h-254l45 276h-279z" />
<glyph unicode="," horiz-adv-x="423" d="M-117 -340l172 467h271l-191 -467h-252z" />
<glyph unicode="-" horiz-adv-x="886" d="M49 426l41 264h766l-43 -264h-764z" />
<glyph unicode="." horiz-adv-x="452" d="M4 143q11 63 67.5 110.5t123.5 47.5q66 0 108 -47.5t31 -110.5q-10 -69 -67 -117.5t-124 -48.5q-68 0 -108.5 48t-30.5 118z" />
<glyph unicode="/" horiz-adv-x="894" d="M-45 -164l827 1864h240l-827 -1864h-240z" />
<glyph unicode="0" horiz-adv-x="1308" d="M106 717q52 326 235.5 521.5t459.5 195.5q260 0 388 -198.5t77 -518.5q-52 -326 -233.5 -521.5t-457.5 -195.5q-172 0 -290.5 90.5t-165.5 253.5t-13 373zM401 717q-32 -200 23.5 -315t196.5 -115q138 0 227.5 114.5t122.5 315.5q32 200 -22.5 315t-192.5 115 q-139 0 -230.5 -115t-124.5 -315z" />
<glyph unicode="1" horiz-adv-x="677" d="M104 1001l39 267q183 0 226 166h305l-228 -1434h-303l166 1055q-51 -33 -98 -43.5t-107 -10.5z" />
<glyph unicode="2" horiz-adv-x="1132" d="M-33 0q21 121 77 221.5t130 169t159 127t168.5 108.5t154 100.5t119.5 115.5t61 141q17 97 -31.5 152t-136.5 55q-82 0 -150 -52.5t-92 -142.5l-283 35q56 201 213.5 317.5t358.5 116.5q99 0 181.5 -31t141.5 -89t84.5 -150t7.5 -205q-14 -92 -60.5 -172t-107 -135.5 t-138.5 -111t-149 -97.5t-145.5 -98t-121.5 -109h612l-41 -264z" />
<glyph unicode="3" horiz-adv-x="1171" d="M23 373l305 41q0 -76 56.5 -126t141.5 -50q95 0 164 54t84 148q15 88 -47 145.5t-205 57.5l37 246q121 0 187.5 49.5t76.5 118.5q9 66 -32 108.5t-113 42.5q-64 0 -116.5 -36t-72.5 -93l-274 35q44 152 178.5 250t323.5 98q194 0 304.5 -111t84.5 -280q-15 -101 -87 -179 t-177 -106q132 -35 199 -139t46 -233q-32 -200 -190.5 -321.5t-415.5 -121.5q-196 0 -325.5 114t-132.5 288z" />
<glyph unicode="4" horiz-adv-x="1234" d="M8 256l37 246l483 932h314l-484 -932h381l88 561h289l-86 -561h170l-37 -246h-172l-41 -256h-288l38 256h-692z" />
<glyph unicode="5" horiz-adv-x="1142" d="M23 348l292 80q-1 -84 55 -137t144 -53q100 0 175.5 62.5t88.5 158.5q15 94 -41.5 154.5t-154.5 60.5q-66 0 -123.5 -30.5t-93.5 -82.5l-242 121l151 752h840l-43 -265h-569l-60 -290q74 45 181 45q227 2 355.5 -127t96.5 -340q-32 -222 -197.5 -355t-408.5 -133 q-187 0 -309.5 105t-136.5 274z" />
<glyph unicode="6" horiz-adv-x="1142" d="M41 457q0 6 2 10q21 125 85 267t150.5 270.5t173.5 235.5t173 194h342q-270 -274 -430 -514q50 6 98 6q139 1 249 -56.5t166.5 -166.5t34.5 -246q-35 -219 -195.5 -353.5t-408.5 -134.5q-219 0 -346 138t-94 350zM332 457q-14 -94 42 -156.5t154 -62.5q97 0 172.5 62 t90.5 157q15 94 -41 154.5t-154 60.5q-99 0 -174 -60.5t-90 -154.5z" />
<glyph unicode="7" horiz-adv-x="1071" d="M102 0l686 1161h-655l43 273h983l-43 -273l-688 -1161h-326z" />
<glyph unicode="8" horiz-adv-x="1183" d="M49 426q22 123 128 230t257 135q-105 24 -161 105t-42 177q27 171 164 280t350 109q191 0 302.5 -111.5t85.5 -277.5q-14 -98 -95.5 -178.5t-197.5 -103.5q143 -28 216.5 -135.5t53.5 -229.5q-32 -203 -191.5 -329t-410.5 -126q-141 0 -253 58.5t-168.5 163.5t-37.5 233z M350 432q-13 -92 45 -148.5t154 -56.5t172.5 56.5t89.5 148.5q15 91 -41.5 147t-155.5 56t-174 -56t-90 -147zM496 1063q-12 -77 31 -119.5t128 -42.5t142 42.5t69 119.5q12 69 -34.5 114.5t-124.5 45.5q-79 0 -140 -45.5t-71 -114.5z" />
<glyph unicode="9" horiz-adv-x="1138" d="M123 977q34 218 197 352.5t403 134.5q107 0 197 -36.5t149.5 -100t85 -154.5t8.5 -196q0 -2 -1 -5t-1 -5q-21 -124 -85 -266t-151.5 -271t-174 -235.5t-172.5 -194.5h-349q296 300 443 516q-44 -8 -101 -8q-138 -1 -247.5 56t-166 166t-34.5 247zM414 977 q-15 -94 41.5 -154.5t154.5 -60.5q99 0 173 60t89 155q15 94 -40.5 156.5t-153.5 62.5q-97 0 -173 -62t-91 -157z" />
<glyph unicode=":" horiz-adv-x="430" d="M4 143q7 58 60 102t116 44q61 0 99.5 -43.5t29.5 -102.5q-10 -65 -62 -110t-114 -45q-64 0 -101.5 45t-27.5 110zM125 909q9 59 61.5 103.5t114.5 44.5q63 0 101.5 -44.5t27.5 -103.5q-10 -64 -61.5 -108.5t-114.5 -44.5t-101 44.5t-28 108.5z" />
<glyph unicode=";" horiz-adv-x="458" d="M-113 -340l170 467h269l-189 -467h-250zM154 909q9 59 62 103.5t116 44.5q61 0 99.5 -44.5t29.5 -103.5q-10 -64 -62 -108.5t-114 -44.5q-63 0 -101.5 44.5t-29.5 108.5z" />
<glyph unicode="&#x3c;" horiz-adv-x="890" d="M115 575l30 199l736 320l-37 -238l-453 -188l393 -187l-36 -221z" />
<glyph unicode="=" horiz-adv-x="1148" d="M84 430l29 193h960l-29 -193h-960zM135 764l31 190h960l-30 -190h-961z" />
<glyph unicode="&#x3e;" horiz-adv-x="888" d="M63 260l37 238l453 190l-391 184l37 222l630 -314l-30 -198z" />
<glyph unicode="?" horiz-adv-x="1153" d="M158 1120q73 150 222 243t341 93q142 0 252 -53.5t165.5 -153.5t35.5 -227q-11 -73 -42.5 -132.5t-74 -99.5t-91.5 -74.5t-97.5 -65t-89.5 -62t-70.5 -75t-38.5 -95.5h-301q14 87 47 154t74 107.5t88.5 72t93 56.5t84.5 51t66.5 65t35.5 90q11 75 -37.5 126.5 t-148.5 51.5q-81 0 -145 -43t-97 -113zM309 143q11 63 67.5 110.5t123.5 47.5q66 0 108 -47.5t31 -110.5q-10 -70 -66.5 -118t-123.5 -48q-68 0 -109 48t-31 118z" />
<glyph unicode="@" horiz-adv-x="1826" d="M68 518q23 171 106 324t207.5 266t292 179.5t350.5 66.5q173 0 322 -63.5t250 -173t148 -266t21 -333.5q-39 -258 -182 -401q-49 -50 -123.5 -73.5t-148 -16t-137 55.5t-87.5 130q-134 -111 -299 -111q-110 0 -192 56t-119 151t-22 209q26 184 151.5 301t296.5 117 q134 0 240 -98l12 90h215l-76 -545q-8 -50 6 -83.5t39 -43.5t52 -7t45 19q85 76 110 250q38 278 -115.5 450.5t-435.5 172.5q-180 0 -333 -78.5t-251.5 -221t-123.5 -323.5q-38 -275 109.5 -447.5t422.5 -172.5q140 0 285 65l72 -192q-190 -86 -385 -86q-177 0 -324 66 t-242 178t-137.5 265.5t-19.5 323.5zM664 518q-12 -97 40 -164t144 -67q91 0 162.5 67.5t85.5 163.5q15 97 -38 165.5t-145 68.5q-94 0 -165.5 -68t-83.5 -166z" />
<glyph unicode="A" horiz-adv-x="1499" d="M-70 0l791 1434h344l344 -1434h-317l-56 236h-635l-127 -236h-344zM543 510h438l-135 559z" />
<glyph unicode="B" horiz-adv-x="1288" d="M57 0l226 1434h575q212 0 330 -112q93 -88 93 -232q0 -39 -7 -82q-29 -179 -189 -271q79 -47 117 -125q27 -54 26 -121q0 -29 -5 -61q-33 -213 -177 -321.5t-374 -108.5h-615zM403 264h308q44 0 85.5 14.5t78.5 54.5t45 99q3 19 3 37q-1 25 -7 45q-12 36 -37 54.5t-54 27 t-61 8.5h-307zM494 836h276q75 0 134 38.5t73 129.5q3 18 3 33q0 25 -7 46q-11 34 -35.5 51.5t-53 26t-61.5 8.5h-276z" />
<glyph unicode="C" horiz-adv-x="1503" d="M102 717q25 153 100.5 288.5t186 234.5t257 156.5t306.5 57.5q197 0 356 -106t224 -277l-293 -139q-41 99 -129.5 158t-206.5 59q-179 0 -322 -126.5t-171 -305.5q-6 -38 -6 -75q0 -76 26 -142q40 -99 128 -157t206 -58q121 0 230.5 60.5t179.5 162.5l251 -139 q-269 -389 -706 -389q-144 0 -269.5 58.5t-209.5 156.5q-86 98 -124 235q-24 84 -23 174q0 55 9 113z" />
<glyph unicode="D" horiz-adv-x="1490" d="M55 0l228 1434l559 2q106 0 205 -29.5t182 -90t140.5 -144.5t80.5 -201q12 -61 13 -127q0 -60 -11 -125q-36 -226 -153 -390.5t-285.5 -246.5t-370.5 -82h-588zM406 295h258q188 0 320.5 106.5t166.5 317.5q8 49 8 92q-1 141 -81 223q-104 106 -294 107l-243 -2z" />
<glyph unicode="E" horiz-adv-x="1218" d="M57 0l226 1434h1015l-43 -269h-710l-49 -315h694l-39 -260h-696l-52 -322h711l-41 -268h-1016z" />
<glyph unicode="F" horiz-adv-x="1228" d="M57 0l226 1434h1011l-41 -273h-712l-52 -319h697l-43 -273h-694l-91 -569h-301z" />
<glyph unicode="G" horiz-adv-x="1558" d="M102 717q25 152 100.5 287t187 234.5t258.5 157.5t306 58q209 0 361.5 -103.5t218.5 -279.5l-293 -143q-39 103 -126 162t-210 59q-180 0 -322.5 -126t-170.5 -306q-6 -38 -6 -75q0 -75 26 -142q40 -99 128 -157t206 -58q274 0 403 200l9 58h-304l35 221h617l-33 -221h-2 l-14 -94q-99 -225 -298.5 -347t-457.5 -122q-151 0 -278.5 58t-210 157t-118.5 235q-22 82 -22 169q0 58 10 118z" />
<glyph unicode="H" horiz-adv-x="1538" d="M57 0l226 1434h303l-90 -576h659l90 576h303l-225 -1434h-303l90 571h-659l-91 -571h-303z" />
<glyph unicode="I" horiz-adv-x="575" d="M57 0l226 1434h303l-226 -1434h-303z" />
<glyph unicode="J" horiz-adv-x="1140" d="M0 66l184 258q68 -50 178 -50q157 0 254 102.5t123 268.5l125 789h303l-133 -848q-45 -292 -235 -449t-484 -157q-184 0 -315 86z" />
<glyph unicode="K" horiz-adv-x="1431" d="M57 0l226 1434h303l-90 -574h184l494 574h393l-639 -713l418 -721h-347l-337 573h-211l-91 -573h-303z" />
<glyph unicode="L" horiz-adv-x="1171" d="M57 0l226 1434h301l-183 -1155h707l-45 -279h-1006z" />
<glyph unicode="M" horiz-adv-x="1884" d="M57 0l226 1434h342l321 -822l580 822h368l-225 -1434h-303l143 920l-481 -689h-260l-262 684l-146 -915h-303z" />
<glyph unicode="N" horiz-adv-x="1540" d="M57 0l226 1434h323l492 -961l149 961h305l-225 -1434h-326l-489 958l-152 -958h-303z" />
<glyph unicode="O" horiz-adv-x="1605" d="M102 717q25 152 100 287t185.5 234.5t257.5 157.5t307 58q145 0 270.5 -58.5t209.5 -156.5t122 -235q23 -84 22 -172q0 -57 -9 -115q-25 -153 -97 -287.5t-180.5 -234t-256 -157.5t-314.5 -58q-145 0 -271 58.5t-210 156.5t-122 235q-23 84 -23 173q0 56 9 114zM410 717 q-6 -37 -5 -72q1 -77 27 -145q40 -99 128 -157t206 -58q180 0 323 126t171 306q6 40 6 76q0 131 -80 230q-103 126 -283 126q-118 0 -224.5 -58t-178 -157t-90.5 -217z" />
<glyph unicode="P" horiz-adv-x="1275" d="M57 0l226 1434h594q96 0 178.5 -32t141.5 -90t85 -149q16 -55 17 -118q0 -40 -7 -82q-23 -148 -104 -256.5t-199 -163t-260 -54.5h-291l-78 -489h-303zM479 748h266q94 0 161.5 60t82.5 155q4 22 4 42q0 65 -38 111q-49 60 -142 60h-268z" />
<glyph unicode="Q" horiz-adv-x="1615" d="M102 717q25 152 100.5 287t186 234.5t257.5 157.5t306 58q142 0 266.5 -58.5t209 -156.5t123.5 -235q25 -87 25 -178q0 -54 -9 -109q-20 -120 -69 -229.5t-125 -200.5t-171.5 -158.5t-215 -106.5t-249.5 -42q137 -29 316 -29q170 0 379 26l-46 -278q-391 24 -695 151.5 t-464 352.5q-83 101 -116 233q-19 77 -19 159q0 60 10 122zM410 717q-6 -39 -6 -76q0 -131 80 -229q103 -127 282 -127t322.5 126.5t171.5 305.5q6 39 6 76q0 131 -80 229q-104 127 -283 127t-322 -126.5t-171 -305.5z" />
<glyph unicode="R" horiz-adv-x="1302" d="M57 0l226 1434h608q95 0 178 -31t144 -88t89 -147q17 -55 17 -117q0 -40 -8 -84q-24 -154 -109.5 -262t-216.5 -160l205 -545h-326l-174 502h-250l-80 -502h-303zM481 760h285q94 0 161.5 56t80.5 147q4 21 4 41q0 64 -38 108q-49 58 -143 57h-286z" />
<glyph unicode="S" horiz-adv-x="1212" d="M27 348l301 80q22 -79 86.5 -126.5t160.5 -47.5q100 0 164.5 43t71.5 115q1 8 1 15q0 39 -28 67q-32 32 -92.5 52t-126.5 35.5t-142 42.5t-126 64q-73 52 -114 140q-29 63 -29 134q0 28 4 58q29 196 188.5 316t390.5 120q185 -1 312.5 -96.5t158.5 -253.5l-290 -82 q-41 166 -216 166q-95 0 -158.5 -48.5t-74.5 -117.5q-2 -13 -2 -24q0 -33 17 -59q23 -34 72 -54t101 -34t119.5 -32.5t110.5 -38.5q135 -52 203 -146q54 -74 53 -172q0 -27 -4 -56q-29 -202 -191 -318q-158 -114 -401 -113h-12q-200 3 -335 105t-173 266z" />
<glyph unicode="T" horiz-adv-x="1288" d="M129 1155l43 279h1233l-43 -279h-465l-182 -1155h-301l180 1155h-465z" />
<glyph unicode="U" horiz-adv-x="1511" d="M129 580l135 854h305l-127 -795q-7 -43 -6 -81q0 -107 50 -182q69 -102 235 -102q164 0 264 102.5t125 262.5l125 795h305l-135 -854q-44 -279 -242 -439.5t-489 -160.5q-125 0 -235 46.5t-185 125.5q-75 80 -110 192q-22 72 -22 147q0 44 7 89z" />
<glyph unicode="V" horiz-adv-x="1429" d="M158 1434h315l211 -1076l537 1076h344l-750 -1434h-360z" />
<glyph unicode="W" horiz-adv-x="2142" d="M162 1434h307l127 -1008l438 1008h326l153 -1004l424 1004h334l-651 -1434h-313l-164 954l-443 -954h-329z" />
<glyph unicode="X" horiz-adv-x="1368" d="M-49 0l569 717l-330 717h345l223 -476l344 476h371l-553 -717l344 -717h-342l-240 475l-354 -475h-377z" />
<glyph unicode="Y" horiz-adv-x="1347" d="M158 1434h329l232 -557l387 557h377l-647 -879l-88 -555h-306l88 555z" />
<glyph unicode="Z" horiz-adv-x="1214" d="M0 0l43 272l786 889h-645l41 273h1053l-43 -273l-786 -889h673l-41 -272h-1081z" />
<glyph unicode="[" horiz-adv-x="555" d="M-53 -190l286 1814h474l-35 -221h-168l-217 -1372h168l-35 -221h-473z" />
<glyph unicode="\" horiz-adv-x="1484" d="M250 1700h239l828 -1864h-240z" />
<glyph unicode="]" horiz-adv-x="555" d="M-86 -190l35 221h168l217 1372h-168l35 221h473l-287 -1814h-473z" />
<glyph unicode="^" horiz-adv-x="956" d="M139 999l432 639h170l232 -639h-219l-131 363l-244 -363h-240z" />
<glyph unicode="_" horiz-adv-x="1247" d="M-25 -227l35 227h1065l-35 -227h-1065z" />
<glyph unicode="`" horiz-adv-x="387" d="M154 1479h229l113 -293h-191z" />
<glyph unicode="a" d="M70 508q24 151 106.5 269.5t202 182.5t254.5 64q201 0 305 -129l18 119h289l-160 -1014h-288l18 117q-139 -127 -344 -127q-92 0 -173 38t-138 104q-56 68 -82 166q-15 58 -15 120q0 44 7 90zM352 508q-4 -24 -3 -47q0 -83 48 -145q62 -78 172 -78q111 0 200 77.5 t108 192.5q4 26 4 49q0 81 -50 141q-65 78 -176 78q-110 0 -197 -77.5t-106 -190.5z" />
<glyph unicode="b" d="M43 0l244 1536h291l-107 -664q65 71 155 111.5t193 40.5q96 0 177.5 -37.5t138 -104t80.5 -164.5q14 -56 13 -116q0 -46 -7 -94q-37 -231 -194.5 -374.5t-371.5 -143.5q-101 0 -180 40.5t-121 110.5l-20 -141h-291zM414 508q-4 -24 -4 -47q0 -83 50 -145q64 -78 175 -78 q110 0 197 78.5t104 191.5q4 26 4 50q0 80 -48 140q-63 78 -173 78t-197.5 -77t-107.5 -191z" />
<glyph unicode="c" horiz-adv-x="1064" d="M70 506q36 222 211 375t403 153q124 0 233 -59.5t162 -163.5l-252 -170q-23 54 -72.5 84.5t-113.5 30.5q-103 0 -186.5 -73t-98.5 -177q-4 -23 -4 -44q0 -76 46 -132q60 -72 163 -72q66 0 126.5 30.5t100.5 84.5l195 -170q-193 -223 -467 -223q-100 0 -190 42t-152 112 t-92 168q-19 62 -18 127q0 38 6 77z" />
<glyph unicode="d" d="M70 508q24 151 108.5 270t204.5 182.5t252 63.5q101 0 180 -41t121 -111l106 664h289l-244 -1536h-288l20 141q-138 -151 -348 -151q-98 0 -180 38t-137 104q-54 67 -78 165q-13 55 -14 116q0 46 8 95zM354 508q-4 -26 -5 -51q0 -81 49 -141q63 -78 173 -78 q111 0 200 77.5t108 192.5q4 26 4 49q0 81 -50 141q-65 78 -176 78q-110 0 -197 -77.5t-106 -190.5z" />
<glyph unicode="e" horiz-adv-x="1212" d="M70 506q18 111 69 208.5t129 172t187 117.5t235 43q115 0 211 -45t157 -127q60 -81 82 -195q9 -46 9 -97q0 -73 -19 -155h-790q7 -99 73 -157t160 -58q153 0 256 106l172 -147q-173 -197 -470 -197h-9q-221 1 -354 157q-105 123 -105 286q0 43 7 88zM379 621h489 q-15 89 -71.5 137.5t-143.5 48.5q-89 0 -161 -50.5t-113 -135.5z" />
<glyph unicode="f" horiz-adv-x="829" d="M84 764l39 250h180l27 168q26 167 152.5 266.5t303.5 99.5q97 0 185 -28l-41 -260q-52 18 -109 18q-83 0 -141.5 -42.5t-71.5 -131.5l-14 -90h283l-39 -250h-285l-121 -764h-289l121 764h-180z" />
<glyph unicode="g" d="M-25 -283l244 183q71 -125 250 -125q77 0 145 26t120 85t65 141l14 90q-146 -127 -346 -127q-97 0 -178.5 38t-136 104.5t-77.5 164.5q-13 55 -13 115q0 46 8 96q36 227 197.5 371.5t363.5 144.5q200 0 307 -129l18 119h289l-153 -967q-22 -140 -84.5 -248.5t-153 -175.5 t-200 -101t-232.5 -34q-140 0 -265.5 63t-181.5 166zM352 508q-4 -24 -4 -47q0 -83 48 -145q62 -78 171 -78q111 0 199.5 77.5t107.5 192.5q4 26 4 50q0 81 -50 140q-64 78 -175 78q-110 0 -197 -77.5t-104 -190.5z" />
<glyph unicode="h" horiz-adv-x="1255" d="M43 0l242 1536h290l-106 -672q122 160 332 160q86 0 159 -35t123.5 -98t71.5 -158q12 -52 11 -110q0 -47 -7 -97l-84 -526h-289l78 504q6 40 6 75q0 79 -34 129q-48 72 -148 72q-107 0 -178.5 -69.5t-93.5 -194.5l-82 -516h-291z" />
<glyph unicode="i" horiz-adv-x="509" d="M29 0l161 1014h291l-162 -1014h-290zM225 1331q11 63 66 109.5t121 46.5q66 -1 106 -47q31 -36 31 -83q0 -13 -2 -26q-10 -67 -65 -114.5t-120 -47.5q-66 -1 -106 47q-32 38 -33 89q0 13 2 26z" />
<glyph unicode="j" horiz-adv-x="548" d="M-260 -487l43 258q54 -13 80 -13q75 0 129 40t67 126l174 1090h289l-182 -1153q-29 -175 -148 -273t-290 -98q-72 0 -162 23zM264 1307q0 69 57.5 124.5t129.5 55.5q59 0 98 -38.5t39 -94.5q0 -73 -58 -128t-129 -55q-60 0 -98.5 38.5t-38.5 97.5z" />
<glyph unicode="k" horiz-adv-x="1228" d="M45 0l242 1536h286l-139 -879h137l347 357h366l-493 -494l342 -520h-342l-248 385h-150l-61 -385h-287z" />
<glyph unicode="l" horiz-adv-x="665" d="M98 352l189 1184h291l-181 -1130q-3 -18 -3 -33q0 -48 26 -79q34 -40 106 -40q43 0 78 14l-41 -252q-101 -24 -164 -24q-169 0 -249 94q-59 70 -59 183q0 39 7 83z" />
<glyph unicode="m" horiz-adv-x="1990" d="M41 0l162 1014h291l-25 -150q123 160 340 160q110 0 193 -52t118 -157q71 103 176.5 156t231.5 53q92 0 166.5 -31.5t125.5 -91.5q52 -61 72 -157q10 -49 9 -104q0 -54 -9 -114l-84 -526h-290l81 504q6 40 6 75q0 81 -34 130q-49 71 -148 71q-105 0 -178.5 -74 t-95.5 -202l-78 -504h-293l82 504q6 40 6 75q0 81 -34 130q-49 71 -148 71q-103 0 -175.5 -71.5t-94.5 -196.5l-82 -512h-291z" />
<glyph unicode="n" horiz-adv-x="1255" d="M41 0l162 1014h291l-25 -150q122 160 334 160q82 0 154 -33.5t123.5 -95t73.5 -157.5q12 -52 11 -110q0 -49 -8 -102l-82 -526h-291l80 504q6 40 6 74q0 80 -34 130q-49 72 -150 72q-107 0 -178.5 -71.5t-93.5 -196.5l-82 -512h-291z" />
<glyph unicode="o" horiz-adv-x="1210" d="M70 506q36 222 212.5 375t405.5 153q105 0 196.5 -41.5t153.5 -112.5q64 -70 92 -168q18 -62 18 -127q0 -39 -7 -79q-18 -109 -70 -205t-131 -167.5t-187.5 -112.5t-232.5 -41q-141 0 -252.5 70t-165.5 192q-38 86 -39 181q0 41 7 83zM352 506q-4 -22 -4 -43 q0 -77 50 -135q64 -74 167 -74q108 0 192 73.5t101 178.5q4 23 4 44q0 78 -49 136q-62 74 -168 74q-107 0 -191.5 -74t-101.5 -180z" />
<glyph unicode="p" d="M-37 -512l242 1526h289l-23 -140q64 71 154 110.5t194 39.5q94 0 176 -38t139 -104.5t82 -164.5q15 -57 15 -119q0 -45 -8 -92q-37 -232 -193 -374t-375 -142q-101 0 -179 40.5t-120 112.5l-104 -655h-289zM414 506q-4 -23 -4 -45q0 -80 50 -141q63 -76 171 -76t194 76.5 t103 185.5q4 24 4 46q0 80 -48 140q-62 76 -171 76q-107 0 -194.5 -76.5t-104.5 -185.5z" />
<glyph unicode="q" horiz-adv-x="1292" d="M70 506q37 232 192.5 375t370.5 143q106 0 186.5 -42.5t120.5 -115.5l25 148h282l-241 -1526h-289l104 653q-64 -72 -155 -111.5t-197 -39.5q-89 0 -169.5 38t-138 103.5t-83.5 164.5q-15 58 -15 121q0 43 7 89zM362 506q-4 -23 -4 -45q0 -80 50 -141q62 -76 170 -76 q107 0 194.5 76.5t106.5 185.5q4 23 4 45q0 80 -51 141q-63 76 -170 76q-110 0 -196.5 -76.5t-103.5 -185.5z" />
<glyph unicode="r" horiz-adv-x="851" d="M43 0l162 1014h291l-27 -168q75 86 187 134q109 47 236 47q3 0 5 -1l-47 -297q-49 25 -115 25q-1 0 -3 1q-65 1 -128 -23q-65 -24 -118.5 -84.5t-71.5 -147.5l-80 -500h-291z" />
<glyph unicode="s" horiz-adv-x="1056" d="M16 238l267 90q15 -63 67.5 -98t126.5 -35q87 0 138 33t59 91q5 32 -19 50t-70.5 25t-98.5 11.5t-115.5 15.5t-108.5 30q-72 31 -112 97q-29 47 -30 110q0 25 5 53q23 144 160 238.5t317 94.5q165 0 265.5 -75.5t115.5 -200.5l-260 -70q-8 60 -46.5 94t-107.5 35h-4 q-65 0 -113 -34q-50 -35 -55 -82q-1 -8 -2 -15q0 -28 20 -44q24 -21 72 -28.5t101 -11t118.5 -13t110.5 -28.5q75 -33 117 -99q31 -48 31 -114q0 -24 -4 -51q-27 -161 -172 -253.5t-351 -92.5q-160 0 -279.5 75t-142.5 202z" />
<glyph unicode="t" horiz-adv-x="876" d="M76 764l41 250h184l47 295h291l-47 -295h274l-39 -250h-274l-57 -354q-3 -20 -2 -37q0 -54 27 -88q37 -45 118 -45q55 0 119 22l-39 -233q-103 -33 -201 -33q-176 0 -262 101q-65 77 -65 189q0 35 6 74l65 404h-186z" />
<glyph unicode="u" horiz-adv-x="1253" d="M98 487l82 527h291l-80 -504q-7 -42 -7 -79q0 -77 33 -126q49 -72 150 -72q108 0 180 71t95 198l82 512h288l-161 -1014h-289l24 147q-126 -157 -342 -157q-81 0 -151 33t-121 93q-52 62 -72 158q-11 51 -10 108q0 50 8 105z" />
<glyph unicode="v" horiz-adv-x="1157" d="M88 1014h291l160 -699l370 699h318l-563 -1014h-330z" />
<glyph unicode="w" horiz-adv-x="1822" d="M96 1014h293l109 -625l317 625h330l127 -615l291 615h321l-504 -1014h-299l-141 657l-340 -657h-313z" />
<glyph unicode="x" horiz-adv-x="1132" d="M-66 0l459 514l-299 500h344l158 -277l246 277h356l-455 -498l295 -516h-344l-155 293l-252 -293h-353z" />
<glyph unicode="y" horiz-adv-x="1153" d="M-49 -512l45 283q226 0 315 168l49 81l-272 994h293l158 -656l358 656h328l-658 -1174q-112 -197 -258.5 -274.5t-357.5 -77.5z" />
<glyph unicode="z" horiz-adv-x="1107" d="M-6 0l41 258l618 498h-514l41 258h932l-41 -258l-618 -498h561l-41 -258h-979z" />
<glyph unicode="{" horiz-adv-x="489" d="M80 614l33 207q63 0 100.5 44.5t53.5 115t26.5 156t29 171.5t50.5 156.5t101 115t171 44.5l-33 -207q-41 0 -64.5 -53.5t-34.5 -138.5t-23.5 -177t-45.5 -184.5t-86 -144.5q37 -52 40 -145t-13.5 -185.5t-32.5 -178.5t-10 -140t47 -54l-31 -206q-81 0 -132 27.5t-71 74 t-24 107t5.5 127t21.5 133t20 127t5 107t-28 74t-75 27.5z" />
<glyph unicode="|" horiz-adv-x="460" d="M-41 -410l324 2048h254l-324 -2048h-254z" />
<glyph unicode="}" horiz-adv-x="487" d="M-90 -190l33 206q41 0 64.5 53.5t34.5 139t23.5 177.5t45.5 184.5t86 144.5q-37 52 -40 145t13.5 185.5t32.5 178.5t9.5 139.5t-48.5 53.5l33 207q102 0 157 -44.5t64.5 -115.5t1 -156.5t-25 -171.5t-23 -157t17 -115.5t86.5 -44.5l-33 -207q-50 0 -83.5 -27.5t-51.5 -74 t-29 -106.5t-20 -126.5t-20.5 -133t-35 -126.5t-58 -106.5t-94 -74t-140.5 -27.5z" />
<glyph unicode="~" horiz-adv-x="1345" d="M57 563q55 111 177 184.5t243 73.5q62 0 126 -19t109 -41.5t103.5 -41.5t110.5 -19q67 0 120 36.5t105 115.5l176 -160q-62 -112 -180.5 -184t-247.5 -72q-69 0 -132 18.5t-103 41t-96.5 41t-114.5 18.5q-135 0 -222 -145z" />
<glyph unicode="&#xa1;" horiz-adv-x="452" d="M-72 -412l160 996h303l-158 -996h-305zM121 879q10 69 66.5 117t123.5 48q68 0 109 -47.5t31 -117.5q-9 -63 -66.5 -110.5t-124.5 -47.5t-107.5 47t-31.5 111z" />
<glyph unicode="&#xa2;" horiz-adv-x="1224" d="M117 508q32 200 185 348t349 174l27 170h141l-26 -168q120 -15 213 -86t135 -178l-267 -137q-15 43 -50 71.5t-79 36.5l-71 -460q49 9 94 39.5t74 74.5l227 -127q-76 -114 -193 -188.5t-249 -89.5l-25 -142h-139l22 142q-186 28 -291.5 175.5t-76.5 344.5zM399 508 q-12 -81 26 -142.5t107 -76.5l70 442q-74 -15 -132 -78t-71 -145z" />
<glyph unicode="&#xa3;" horiz-adv-x="1120" d="M-20 0l40 264q97 79 147 152t73 174h-148l35 207h129q-4 120 0 204q9 204 136.5 332.5t346.5 128.5q148 0 249.5 -74t125.5 -190l-274 -125q-6 53 -44 88t-98 35q-79 0 -127 -51.5t-51 -151.5l-6 -196h418l-33 -207h-432q-24 -99 -73.5 -172t-141.5 -154h764l-43 -264 h-993z" />
<glyph unicode="&#xa4;" horiz-adv-x="1236" d="M63 385l168 145q-54 110 -33 244t111 242l-123 147l170 146l123 -146q120 72 255 72t233 -72l168 146l125 -144l-170 -149q56 -109 34.5 -243.5t-112.5 -244.5l125 -143l-172 -149l-123 147q-120 -72 -254 -72t-232 72l-172 -147zM420.5 773q-15.5 -98 44.5 -169 q59 -69 157.5 -69.5t180.5 69.5q80 71 96.5 169t-41.5 169q-60 70 -159 70t-181 -70q-82 -71 -97.5 -169z" />
<glyph unicode="&#xa5;" horiz-adv-x="1433" d="M215 1434h332l221 -541l383 541h362l-550 -752h217l-23 -133h-285l-16 -96h287l-21 -134h-286l-52 -319h-301l52 319h-289l22 134h287l16 96h-288l22 133h223z" />
<glyph unicode="&#xa6;" horiz-adv-x="460" d="M-41 -410l133 848h254l-133 -848h-254zM150 791l133 847h254l-134 -847h-253z" />
<glyph unicode="&#xa7;" horiz-adv-x="645" d="M94 639q-8 97 42.5 196t144.5 156q-21 58 -25 88q-15 92 33 188.5t145 153.5l141 -104q-111 -99 -102 -187q1 -32 22 -72.5t46 -75.5t47.5 -88t25.5 -106q11 -96 -38.5 -194.5t-147.5 -151.5q20 -47 25 -92q15 -90 -37 -187.5t-148 -152.5l-137 105q114 90 109 184 q-2 39 -23.5 80.5t-46.5 73.5t-48 82t-28 104zM297 690q2 -41 41 -100q73 70 68 147q-3 51 -33 103q-79 -76 -76 -150z" />
<glyph unicode="&#xa8;" horiz-adv-x="618" d="M131 1333q8 48 49.5 83.5t91.5 35.5t80.5 -35.5t22.5 -83.5q-7 -51 -48 -87t-91 -36q-51 0 -81.5 36t-23.5 87zM504 1333q8 50 49.5 84.5t93.5 34.5q50 0 80 -35t23 -84q-9 -51 -50 -87t-90 -36q-52 0 -83 36t-23 87z" />
<glyph unicode="&#xa9;" horiz-adv-x="1460" d="M61 508q21 137 91 260.5t172.5 213t236 142t275.5 52.5q178 0 317.5 -87.5t207 -242t38.5 -338.5q-22 -137 -92.5 -260.5t-172.5 -213t-235 -142t-274 -52.5q-132 0 -246.5 52.5t-191.5 141.5t-112 213.5t-14 260.5zM262 508q-20 -128 25.5 -235.5t143 -169.5t224.5 -62 q195 0 353.5 136t189.5 331q20 128 -25.5 235.5t-143.5 169.5t-226 62q-194 0 -352 -136t-189 -331zM344 504q25 159 150 269t284 110q101 0 182.5 -53t116.5 -140l-176 -90q-18 47 -57 73.5t-94 26.5q-79 0 -143.5 -57t-78.5 -139q-12 -82 34.5 -138.5t125.5 -56.5 q54 0 103.5 29t82.5 78l152 -86q-64 -94 -158 -148.5t-209 -54.5q-150 0 -244.5 111t-70.5 266z" />
<glyph unicode="&#xab;" horiz-adv-x="1040" d="M92 575l432 359l119 -139l-268 -220l190 -213l-153 -145zM487 575l431 359l120 -139l-268 -220l191 -213l-154 -145z" />
<glyph unicode="&#xad;" horiz-adv-x="886" d="M49 426l41 264h766l-43 -264h-764z" />
<glyph unicode="&#xae;" horiz-adv-x="741" d="M193 1329q20 130 122.5 219.5t235.5 89.5q126 0 203 -90t57 -219t-122.5 -218t-235.5 -89q-124 0 -202 90.5t-58 216.5zM264 1329q-15 -98 43 -166.5t158 -68.5q97 0 177 68.5t95 166.5q17 103 -40.5 170.5t-157.5 67.5q-99 0 -178.5 -67.5t-96.5 -170.5zM360 1163 l54 348h129q51 0 78 -30.5t18 -81.5q-6 -36 -29 -63.5t-57 -39.5l39 -133h-64l-34 127h-56l-20 -127h-58zM446 1343h66q63 0 72 56q8 57 -54 57h-65z" />
<glyph unicode="&#xaf;" horiz-adv-x="530" d="M117 1245l28 172h529l-27 -172h-530z" />
<glyph unicode="&#xb0;" horiz-adv-x="522" d="M193 1331q14 85 78.5 142t152.5 57q81 0 131 -58t37 -141q-14 -86 -78.5 -143.5t-151.5 -57.5q-81 0 -131.5 58.5t-37.5 142.5zM315 1331q-4 -34 15 -56t51 -22q33 0 58.5 22.5t29.5 55.5q5 31 -13 53.5t-50 22.5t-59.5 -22.5t-31.5 -53.5z" />
<glyph unicode="&#xb1;" horiz-adv-x="1013" d="M51 176l39 250h805l-39 -250h-805zM143 766l41 252h277l43 276h254l-43 -276h276l-39 -252h-278l-43 -277h-254l43 277h-277z" />
<glyph unicode="&#xb2;" horiz-adv-x="571" d="M76 809q10 61 38 111t65 84.5t79.5 63.5t84 54t76.5 50t60 57.5t31 70.5q7 49 -17 77t-67 28q-41 0 -75 -26.5t-46 -71.5l-141 18q27 100 106 158.5t179 58.5q104 0 165 -62.5t43 -174.5q-9 -55 -39 -100.5t-72.5 -78.5t-86 -60t-89.5 -60t-73 -64h305l-20 -131z" />
<glyph unicode="&#xb3;" horiz-adv-x="591" d="M104 995l152 21q0 -38 28.5 -63t71.5 -25q47 0 81.5 27t41.5 75q7 43 -24 71.5t-103 28.5l21 123q60 0 93 25t38 61q4 32 -16.5 53t-55.5 21q-32 0 -57.5 -18t-36.5 -47l-137 18q21 76 88 125t162 49q97 0 152 -55.5t42 -141.5q-8 -50 -43.5 -89t-87.5 -52 q66 -17 99 -68.5t24 -117.5q-16 -99 -95.5 -160t-209.5 -61q-98 0 -163 57t-65 143z" />
<glyph unicode="&#xb4;" horiz-adv-x="368" d="M109 1186l188 293h225l-223 -293h-190z" />
<glyph unicode="&#xb6;" horiz-adv-x="1236" d="M147 973q34 215 178.5 338t342.5 123h647l-291 -1844h-238l254 1616h-170l-256 -1616h-237l145 918q-207 1 -307.5 130t-67.5 335z" />
<glyph unicode="&#xb7;" horiz-adv-x="452" d="M68 553q11 63 67.5 110.5t122.5 47.5q67 0 108.5 -47.5t30.5 -110.5q-10 -69 -66 -117.5t-122 -48.5q-68 0 -109.5 48.5t-31.5 117.5z" />
<glyph unicode="&#xb8;" horiz-adv-x="430" d="M-131 -309l98 61q28 -64 103 -61q43 1 71.5 25t34.5 59q7 52 -47.5 72.5t-134.5 -1.5l67 183h119l-33 -82q82 3 130 -46.5t36 -125.5q-14 -89 -82.5 -146t-175.5 -53q-68 0 -118 32t-68 83z" />
<glyph unicode="&#xb9;" horiz-adv-x="356" d="M150 1311l22 131q88 0 111 84h151l-112 -717h-152l84 526q-44 -24 -104 -24z" />
<glyph unicode="&#xbb;" horiz-adv-x="1042" d="M25 356l268 219l-193 213l156 146l319 -359l-432 -358zM418 356l270 219l-192 213l155 146l320 -359l-432 -358z" />
<glyph unicode="&#xbc;" horiz-adv-x="1357" d="M-180 -164l1417 1864h149l-1417 -1864h-149zM139 1229l21 131q89 0 112 84h152l-113 -717h-153l86 526q-44 -24 -105 -24zM702 117l19 123l242 467h157l-241 -467h188l45 280h145l-45 -280h88l-20 -123h-86l-20 -127h-146l21 127h-347z" />
<glyph unicode="&#xbd;" horiz-adv-x="1337" d="M-180 -164l1417 1864h149l-1417 -1864h-149zM139 1229l21 131q89 0 112 84h152l-113 -717h-153l86 526q-44 -24 -105 -24zM713 -10q14 82 61 145.5t105.5 102.5t115.5 73t100.5 76.5t51.5 93.5q7 50 -16.5 77.5t-67.5 27.5q-41 0 -75 -27t-46 -72l-143 19 q30 100 108.5 158.5t177.5 58.5q104 0 165.5 -63t43.5 -175q-9 -55 -39 -100t-72 -78t-85.5 -60.5t-90 -60t-73.5 -63.5h305l-20 -133h-506z" />
<glyph unicode="&#xbe;" horiz-adv-x="1593" d="M55 -164l1418 1864h149l-1417 -1864h-150zM90 913l154 21q0 -38 29 -63t71 -25q48 0 82 26t41 74q7 45 -23.5 74t-101.5 29l18 122q60 0 93.5 25t38.5 61q6 32 -15 53t-57 21q-32 0 -57.5 -18t-36.5 -47l-138 18q21 76 88.5 125t161.5 49q97 0 152.5 -55t42.5 -141 q-8 -50 -43 -89.5t-86 -52.5q65 -17 98.5 -69.5t22.5 -116.5q-15 -100 -94.5 -160.5t-208.5 -60.5q-98 0 -163.5 56t-68.5 144zM936 117l18 123l242 467h158l-242 -467h188l46 280h145l-45 -280h88l-21 -123h-86l-20 -127h-145l20 127h-346z" />
<glyph unicode="&#xbf;" horiz-adv-x="1153" d="M-16 23q11 73 43 132.5t74 99.5t91 74.5t97.5 65t89.5 62t70.5 75t37.5 95.5h304q-14 -87 -47 -154t-74.5 -107.5t-88.5 -72t-93 -56.5t-85 -51t-66.5 -65t-35.5 -90q-11 -75 37.5 -126.5t148.5 -51.5q81 0 144.5 42.5t95.5 112.5l272 -84q-71 -150 -221 -243t-342 -93 q-105 0 -194.5 32t-151.5 88t-91 138t-15 177zM520 901q10 70 66.5 118t124.5 48t108.5 -48t30.5 -118q-11 -63 -67.5 -110.5t-123.5 -47.5t-108.5 47.5t-30.5 110.5z" />
<glyph unicode="&#xc0;" horiz-adv-x="1499" d="M-70 0l791 1434h344l344 -1434h-317l-56 236h-635l-127 -236h-344zM543 510h438l-135 559zM676 1898h229l113 -292h-191z" />
<glyph unicode="&#xc1;" horiz-adv-x="1499" d="M-70 0l791 1434h344l344 -1434h-317l-56 236h-635l-127 -236h-344zM543 510h438l-135 559zM825 1606l189 292h225l-223 -292h-191z" />
<glyph unicode="&#xc2;" horiz-adv-x="1499" d="M-70 0l791 1434h344l344 -1434h-317l-56 236h-635l-127 -236h-344zM543 510h438l-135 559zM600 1608l262 286h209l168 -286h-203l-90 159l-143 -159h-203z" />
<glyph unicode="&#xc3;" horiz-adv-x="1499" d="M-70 0l791 1434h344l344 -1434h-317l-56 236h-635l-127 -236h-344zM543 510h438l-135 559zM657 1743l99 102q26 -47 86 -47q41 0 111.5 31t117.5 31q38 0 70 -17t48.5 -36t37.5 -50l-92 -98q-32 47 -95 47q-36 0 -108 -30.5t-119 -30.5q-52 0 -95.5 30.5t-60.5 67.5z" />
<glyph unicode="&#xc4;" horiz-adv-x="1499" d="M-70 0l791 1434h344l344 -1434h-317l-56 236h-635l-127 -236h-344zM543 510h438l-135 559zM635 1753q8 48 49.5 83.5t91.5 35.5t80.5 -35.5t22.5 -83.5q-7 -51 -48.5 -87t-91.5 -36q-51 0 -81.5 36t-22.5 87zM1008 1753q8 50 49.5 84.5t93.5 34.5q50 0 79.5 -35t22.5 -84 q-9 -51 -49.5 -87t-89.5 -36q-52 0 -83 36t-23 87z" />
<glyph unicode="&#xc5;" horiz-adv-x="1499" d="M-70 0l791 1434h344l344 -1434h-317l-56 236h-635l-127 -236h-344zM543 510h438l-135 559zM782 1753q11 66 65.5 113t123.5 47q66 0 105 -47.5t28 -112.5q-9 -69 -62 -116.5t-124 -47.5q-67 0 -107 48t-29 116zM885 1751q-5 -24 10 -41.5t41 -17.5q24 0 43 17.5t22 41.5 q4 25 -10 42t-39 17q-24 0 -43 -17t-24 -42z" />
<glyph unicode="&#xc6;" horiz-adv-x="2045" d="M-70 0l990 1434h1204l-41 -273h-713l-49 -305h684l-41 -272h-686l-49 -312h713l-44 -272h-1017l41 252h-443l-172 -252h-377zM653 526h312l92 596z" />
<glyph unicode="&#xc7;" horiz-adv-x="1503" d="M102 717q25 153 100.5 288.5t186 234.5t257 156.5t306.5 57.5q197 0 356 -106t224 -277l-293 -139q-41 99 -129.5 158t-206.5 59q-179 0 -322 -126.5t-171 -305.5q-19 -118 20.5 -217t127.5 -157t206 -58q121 0 230.5 60.5t179.5 162.5l251 -139q-258 -370 -665 -389 l-12 -31q82 3 129.5 -46.5t35.5 -125.5q-14 -89 -82.5 -146t-175.5 -53q-68 0 -118 32t-68 83l98 61q28 -64 103 -61q43 1 71.5 25t34.5 59q7 52 -47.5 72.5t-134.5 -1.5l49 136q-130 14 -240.5 77.5t-184.5 160t-106 226t-10 269.5z" />
<glyph unicode="&#xc8;" horiz-adv-x="1218" d="M57 0l226 1434h1015l-43 -269h-710l-49 -315h694l-39 -260h-696l-52 -322h711l-41 -268h-1016zM580 1898h229l113 -292h-191z" />
<glyph unicode="&#xc9;" horiz-adv-x="1218" d="M57 0l226 1434h1015l-43 -269h-710l-49 -315h694l-39 -260h-696l-52 -322h711l-41 -268h-1016zM729 1606l189 292h225l-223 -292h-191z" />
<glyph unicode="&#xca;" horiz-adv-x="1218" d="M57 0l226 1434h1015l-43 -269h-710l-49 -315h694l-39 -260h-696l-52 -322h711l-41 -268h-1016zM504 1608l262 286h209l168 -286h-203l-90 159l-143 -159h-203z" />
<glyph unicode="&#xcb;" horiz-adv-x="1218" d="M57 0l226 1434h1015l-43 -269h-710l-49 -315h694l-39 -260h-696l-52 -322h711l-41 -268h-1016zM539 1753q8 48 49.5 83.5t91.5 35.5t80 -35.5t22 -83.5q-7 -51 -48 -87t-91 -36q-51 0 -81.5 36t-22.5 87zM911 1753q8 50 50 84.5t94 34.5q50 0 79.5 -35t22.5 -84 q-9 -51 -49.5 -87t-89.5 -36q-52 0 -83.5 36t-23.5 87z" />
<glyph unicode="&#xcc;" horiz-adv-x="575" d="M57 0l226 1434h303l-226 -1434h-303zM215 1898h229l113 -292h-190z" />
<glyph unicode="&#xcd;" horiz-adv-x="575" d="M57 0l226 1434h303l-226 -1434h-303zM365 1606l188 292h225l-223 -292h-190z" />
<glyph unicode="&#xce;" horiz-adv-x="575" d="M57 0l226 1434h303l-226 -1434h-303zM139 1608l262 286h209l168 -286h-203l-90 159l-143 -159h-203z" />
<glyph unicode="&#xcf;" horiz-adv-x="575" d="M57 0l226 1434h303l-226 -1434h-303zM174 1753q8 48 49.5 83.5t91.5 35.5t80.5 -35.5t22.5 -83.5q-7 -51 -48 -87t-91 -36q-51 0 -81.5 36t-23.5 87zM547 1753q8 50 49.5 84.5t93.5 34.5q50 0 80 -35t23 -84q-9 -51 -50 -87t-90 -36q-52 0 -83 36t-23 87z" />
<glyph unicode="&#xd0;" horiz-adv-x="1490" d="M29 614l30 203h125l99 617l559 2q106 0 205 -29.5t182 -90t140.5 -144.5t80.5 -201t2 -252q-36 -226 -153 -390.5t-285.5 -246.5t-370.5 -82h-588l99 614h-125zM406 295h258q188 0 320.5 106.5t166.5 317.5q32 209 -72.5 315.5t-294.5 106.5l-243 -2l-52 -322h330 l-31 -203h-331z" />
<glyph unicode="&#xd1;" horiz-adv-x="1540" d="M57 0l226 1434h323l492 -961l149 961h305l-225 -1434h-326l-489 958l-152 -958h-303zM662 1743l98 102q26 -47 86 -47q41 0 111.5 31t117.5 31q38 0 70 -17t48.5 -36t37.5 -50l-92 -98q-32 47 -95 47q-36 0 -108 -30.5t-119 -30.5q-52 0 -95 30t-60 68z" />
<glyph unicode="&#xd2;" horiz-adv-x="1605" d="M102 717q25 152 100 287t185.5 234.5t257.5 157.5t307 58q145 0 270.5 -58.5t209.5 -156.5t121.5 -235t13.5 -287q-25 -153 -97 -287.5t-180.5 -234t-256 -157.5t-314.5 -58q-145 0 -271 58.5t-210 156.5t-122 235t-14 287zM410 717q-18 -118 21.5 -217t128 -157 t206.5 -58q180 0 323 126t171 306q29 180 -74 306t-283 126q-118 0 -224.5 -58t-178 -157t-90.5 -217zM731 1898h230l112 -292h-190z" />
<glyph unicode="&#xd3;" horiz-adv-x="1605" d="M102 717q25 152 100 287t185.5 234.5t257.5 157.5t307 58q145 0 270.5 -58.5t209.5 -156.5t121.5 -235t13.5 -287q-25 -153 -97 -287.5t-180.5 -234t-256 -157.5t-314.5 -58q-145 0 -271 58.5t-210 156.5t-122 235t-14 287zM410 717q-18 -118 21.5 -217t128 -157 t206.5 -58q180 0 323 126t171 306q29 180 -74 306t-283 126q-118 0 -224.5 -58t-178 -157t-90.5 -217zM881 1606l188 292h225l-223 -292h-190z" />
<glyph unicode="&#xd4;" horiz-adv-x="1605" d="M102 717q25 152 100 287t185.5 234.5t257.5 157.5t307 58q145 0 270.5 -58.5t209.5 -156.5t121.5 -235t13.5 -287q-25 -153 -97 -287.5t-180.5 -234t-256 -157.5t-314.5 -58q-145 0 -271 58.5t-210 156.5t-122 235t-14 287zM410 717q-18 -118 21.5 -217t128 -157 t206.5 -58q180 0 323 126t171 306q29 180 -74 306t-283 126q-118 0 -224.5 -58t-178 -157t-90.5 -217zM657 1608l263 286h208l168 -286h-202l-90 159l-144 -159h-203z" />
<glyph unicode="&#xd5;" horiz-adv-x="1605" d="M102 717q25 152 100 287t185.5 234.5t257.5 157.5t307 58q145 0 270.5 -58.5t209.5 -156.5t121.5 -235t13.5 -287q-25 -153 -97 -287.5t-180.5 -234t-256 -157.5t-314.5 -58q-145 0 -271 58.5t-210 156.5t-122 235t-14 287zM410 717q-18 -118 21.5 -217t128 -157 t206.5 -58q180 0 323 126t171 306q29 180 -74 306t-283 126q-118 0 -224.5 -58t-178 -157t-90.5 -217zM715 1743l98 102q26 -47 86 -47q41 0 111.5 31t117.5 31q38 0 70 -17t48.5 -36t37.5 -50l-92 -98q-32 47 -94 47q-36 0 -108.5 -30.5t-119.5 -30.5q-52 0 -95 30t-60 68z " />
<glyph unicode="&#xd6;" horiz-adv-x="1605" d="M102 717q25 152 100 287t185.5 234.5t257.5 157.5t307 58q145 0 270.5 -58.5t209.5 -156.5t121.5 -235t13.5 -287q-25 -153 -97 -287.5t-180.5 -234t-256 -157.5t-314.5 -58q-145 0 -271 58.5t-210 156.5t-122 235t-14 287zM410 717q-18 -118 21.5 -217t128 -157 t206.5 -58q180 0 323 126t171 306q29 180 -74 306t-283 126q-118 0 -224.5 -58t-178 -157t-90.5 -217zM690 1753q8 48 49.5 83.5t91.5 35.5t80.5 -35.5t22.5 -83.5q-7 -51 -48 -87t-91 -36q-51 0 -81.5 36t-23.5 87zM1063 1753q8 50 49.5 84.5t93.5 34.5q50 0 80 -35t23 -84 q-9 -51 -50 -87t-90 -36q-52 0 -83 36t-23 87z" />
<glyph unicode="&#xd7;" horiz-adv-x="927" d="M86 492l227 196l-159 189l198 172l160 -191l233 203l154 -184l-233 -201l165 -197l-198 -172l-166 197l-227 -197z" />
<glyph unicode="&#xd8;" horiz-adv-x="1605" d="M102 717q25 152 100 287t185.5 234.5t257.5 157.5t307 58q117 0 226 -39l82 127h206l-135 -211q137 -101 201.5 -263t34.5 -351q-25 -153 -97 -287.5t-180.5 -234t-256 -157.5t-314.5 -58q-119 0 -225 38l-82 -127h-207l135 211q-137 101 -202.5 263.5t-35.5 351.5z M410 717q-15 -102 13 -190.5t93 -147.5l485 758q-47 12 -98 12q-118 0 -224.5 -58t-178 -157t-90.5 -217zM670 295q52 -10 96 -10q180 0 323 126t171 306q17 101 -11.5 190t-93.5 148z" />
<glyph unicode="&#xd9;" horiz-adv-x="1511" d="M129 580l135 854h305l-127 -795q-25 -161 44 -263t235 -102q164 0 264 102.5t125 262.5l125 795h305l-135 -854q-44 -279 -242 -439.5t-489 -160.5q-125 0 -235 46.5t-185 125.5t-110 191.5t-15 236.5zM672 1898h229l113 -292h-191z" />
<glyph unicode="&#xda;" horiz-adv-x="1511" d="M129 580l135 854h305l-127 -795q-25 -161 44 -263t235 -102q164 0 264 102.5t125 262.5l125 795h305l-135 -854q-44 -279 -242 -439.5t-489 -160.5q-125 0 -235 46.5t-185 125.5t-110 191.5t-15 236.5zM821 1606l189 292h225l-223 -292h-191z" />
<glyph unicode="&#xdb;" horiz-adv-x="1511" d="M129 580l135 854h305l-127 -795q-25 -161 44 -263t235 -102q164 0 264 102.5t125 262.5l125 795h305l-135 -854q-44 -279 -242 -439.5t-489 -160.5q-125 0 -235 46.5t-185 125.5t-110 191.5t-15 236.5zM598 1608l262 286h209l168 -286h-203l-90 159l-143 -159h-203z" />
<glyph unicode="&#xdc;" horiz-adv-x="1511" d="M129 580l135 854h305l-127 -795q-25 -161 44 -263t235 -102q164 0 264 102.5t125 262.5l125 795h305l-135 -854q-44 -279 -242 -439.5t-489 -160.5q-125 0 -235 46.5t-185 125.5t-110 191.5t-15 236.5zM633 1753q8 48 49.5 83.5t91.5 35.5t80.5 -35.5t22.5 -83.5 q-7 -51 -48.5 -87t-91.5 -36q-51 0 -81.5 36t-22.5 87zM1006 1753q8 50 49.5 84.5t93.5 34.5q50 0 79.5 -35t22.5 -84q-9 -51 -49.5 -87t-89.5 -36q-52 0 -83 36t-23 87z" />
<glyph unicode="&#xdd;" horiz-adv-x="1347" d="M158 1434h329l232 -557l387 557h377l-647 -879l-88 -555h-306l88 555zM725 1606l188 292h226l-224 -292h-190z" />
<glyph unicode="&#xde;" horiz-adv-x="1245" d="M57 0l226 1434h303l-37 -246h260q94 0 176 -31.5t141.5 -89.5t86 -149t8.5 -201q-34 -220 -191.5 -345.5t-370.5 -125.5h-260l-39 -246h-303zM442 516h236q96 0 162.5 53.5t79.5 147.5q15 94 -34.5 147.5t-144.5 53.5h-237z" />
<glyph unicode="&#xdf;" horiz-adv-x="1529" d="M84 764l39 250h178l27 176q28 177 156 282t317 105q185 0 279 -98t71 -244q-10 -62 -32 -112.5t-46.5 -83.5t-48.5 -61.5t-42.5 -60t-23.5 -65.5q-7 -46 18.5 -79.5t72 -54.5t103 -40.5t112 -45.5t99.5 -61.5t65.5 -97t9.5 -143.5q-18 -115 -91.5 -196.5t-175 -118 t-219.5 -35.5q-156 2 -264.5 76.5t-132.5 217.5l256 72q6 -63 47 -101t115 -38q81 0 129.5 37.5t54.5 99.5q4 37 -23 67t-73 52t-102 43.5t-110.5 49.5t-97.5 63t-64.5 91t-10.5 126q8 52 36.5 107.5t58.5 95.5t58 91.5t35 96.5q8 47 -19 77.5t-83 30.5q-55 0 -93.5 -34.5 t-47.5 -98.5l-191 -1202h-289l119 764h-176z" />
<glyph unicode="&#xe0;" d="M70 508q24 151 106.5 269.5t202 182.5t254.5 64q201 0 305 -129l18 119h289l-160 -1014h-288l18 117q-139 -127 -344 -127q-92 0 -173 38t-138 104.5t-82.5 165t-7.5 210.5zM352 508q-17 -113 45 -191.5t172 -78.5q111 0 200 77.5t108 192.5q19 113 -46 190.5t-176 77.5 q-110 0 -197 -77.5t-106 -190.5zM500 1479h229l113 -293h-191z" />
<glyph unicode="&#xe1;" d="M70 508q24 151 106.5 269.5t202 182.5t254.5 64q201 0 305 -129l18 119h289l-160 -1014h-288l18 117q-139 -127 -344 -127q-92 0 -173 38t-138 104.5t-82.5 165t-7.5 210.5zM352 508q-17 -113 45 -191.5t172 -78.5q111 0 200 77.5t108 192.5q19 113 -46 190.5t-176 77.5 q-110 0 -197 -77.5t-106 -190.5zM649 1186l189 293h225l-223 -293h-191z" />
<glyph unicode="&#xe2;" d="M70 508q24 151 106.5 269.5t202 182.5t254.5 64q201 0 305 -129l18 119h289l-160 -1014h-288l18 117q-139 -127 -344 -127q-92 0 -173 38t-138 104.5t-82.5 165t-7.5 210.5zM352 508q-17 -113 45 -191.5t172 -78.5q111 0 200 77.5t108 192.5q19 113 -46 190.5t-176 77.5 q-110 0 -197 -77.5t-106 -190.5zM426 1188l262 287h209l168 -287h-203l-90 160l-143 -160h-203z" />
<glyph unicode="&#xe3;" d="M70 508q24 151 106.5 269.5t202 182.5t254.5 64q201 0 305 -129l18 119h289l-160 -1014h-288l18 117q-139 -127 -344 -127q-92 0 -173 38t-138 104.5t-82.5 165t-7.5 210.5zM352 508q-17 -113 45 -191.5t172 -78.5q111 0 200 77.5t108 192.5q19 113 -46 190.5t-176 77.5 q-110 0 -197 -77.5t-106 -190.5zM483 1323l99 102q26 -47 86 -47q41 0 111.5 31t117.5 31q38 0 70 -17t48.5 -36t37.5 -50l-92 -98q-32 47 -95 47q-36 0 -108 -30.5t-119 -30.5q-52 0 -95.5 30.5t-60.5 67.5z" />
<glyph unicode="&#xe4;" d="M70 508q24 151 106.5 269.5t202 182.5t254.5 64q201 0 305 -129l18 119h289l-160 -1014h-288l18 117q-139 -127 -344 -127q-92 0 -173 38t-138 104.5t-82.5 165t-7.5 210.5zM352 508q-17 -113 45 -191.5t172 -78.5q111 0 200 77.5t108 192.5q19 113 -46 190.5t-176 77.5 q-110 0 -197 -77.5t-106 -190.5zM459 1333q8 48 49.5 83.5t91.5 35.5t80 -35.5t22 -83.5q-7 -51 -48 -87t-91 -36q-51 0 -81.5 36t-22.5 87zM831 1333q8 50 50 84.5t94 34.5q50 0 79.5 -35t22.5 -84q-9 -51 -49.5 -87t-89.5 -36q-52 0 -83.5 36t-23.5 87z" />
<glyph unicode="&#xe5;" d="M70 508q24 151 106.5 269.5t202 182.5t254.5 64q201 0 305 -129l18 119h289l-160 -1014h-288l18 117q-139 -127 -344 -127q-92 0 -173 38t-138 104.5t-82.5 165t-7.5 210.5zM352 508q-17 -113 45 -191.5t172 -78.5q111 0 200 77.5t108 192.5q19 113 -46 190.5t-176 77.5 q-110 0 -197 -77.5t-106 -190.5zM606 1333q11 66 65.5 113t123.5 47q66 0 105 -47.5t28 -112.5q-9 -68 -62.5 -116t-124.5 -48q-67 0 -106.5 48t-28.5 116zM709 1331q-5 -24 10 -41.5t41 -17.5q24 0 43 17.5t22 41.5q5 25 -9.5 42.5t-39.5 17.5q-24 0 -43 -17.5t-24 -42.5z " />
<glyph unicode="&#xe6;" horiz-adv-x="2105" d="M70 508q24 151 108.5 269.5t205.5 182.5t257 64q102 0 180.5 -40.5t120.5 -111.5l23 142h290l-20 -140q64 71 156 111.5t196 40.5q113 0 207 -41t156 -117.5t84 -186t-9 -247.5h-782q4 -96 67 -153.5t158 -57.5q160 0 258 101l152 -142q-170 -194 -451 -194 q-103 0 -183.5 42t-123.5 115l-24 -145h-291l22 141q-65 -71 -156 -112t-194 -41q-96 0 -178.5 38.5t-139.5 105.5t-82 165t-7 211zM362 508q-17 -110 46.5 -187t175.5 -77q109 0 195.5 76.5t105.5 191.5q17 107 -47.5 182.5t-171.5 75.5q-110 0 -197.5 -76.5t-106.5 -185.5 zM1284 612h483q-6 84 -64.5 134.5t-150.5 50.5q-89 0 -162 -52t-106 -133z" />
<glyph unicode="&#xe7;" horiz-adv-x="1064" d="M70 506q36 222 211 375t403 153q124 0 233 -59.5t162 -163.5l-252 -170q-23 54 -72.5 84.5t-113.5 30.5q-103 0 -186.5 -73t-98.5 -177q-17 -103 42.5 -175.5t162.5 -72.5q66 0 126.5 30.5t100.5 84.5l195 -170q-163 -191 -389 -219l-14 -35q82 3 129.5 -46.5 t35.5 -125.5q-14 -89 -82.5 -146t-175.5 -53q-68 0 -118 32t-68 83l98 61q28 -64 103 -61q43 1 71.5 25t34.5 59q7 52 -47.5 72.5t-134.5 -1.5l49 134q-94 9 -176 53.5t-138 113.5t-81.5 162.5t-9.5 194.5z" />
<glyph unicode="&#xe8;" horiz-adv-x="1212" d="M70 506q18 111 69 208.5t129 172t187 117.5t235 43q115 0 211 -45t156.5 -127t82.5 -195.5t-10 -251.5h-790q7 -99 73 -157t160 -58q153 0 256 106l172 -147q-176 -200 -479 -197q-221 2 -354 157.5t-98 373.5zM379 621h489q-15 89 -71.5 137.5t-143.5 48.5 q-89 0 -161 -50.5t-113 -135.5zM463 1509h229l113 -292h-191z" />
<glyph unicode="&#xe9;" horiz-adv-x="1212" d="M70 506q18 111 69 208.5t129 172t187 117.5t235 43q115 0 211 -45t156.5 -127t82.5 -195.5t-10 -251.5h-790q7 -99 73 -157t160 -58q153 0 256 106l172 -147q-176 -200 -479 -197q-221 2 -354 157.5t-98 373.5zM379 621h489q-15 89 -71.5 137.5t-143.5 48.5 q-89 0 -161 -50.5t-113 -135.5zM612 1217l189 292h225l-223 -292h-191z" />
<glyph unicode="&#xea;" horiz-adv-x="1212" d="M70 506q18 111 69 208.5t129 172t187 117.5t235 43q115 0 211 -45t156.5 -127t82.5 -195.5t-10 -251.5h-790q7 -99 73 -157t160 -58q153 0 256 106l172 -147q-176 -200 -479 -197q-221 2 -354 157.5t-98 373.5zM379 621h489q-15 89 -71.5 137.5t-143.5 48.5 q-89 0 -161 -50.5t-113 -135.5zM387 1219l262 286h209l168 -286h-203l-90 159l-143 -159h-203z" />
<glyph unicode="&#xeb;" horiz-adv-x="1212" d="M70 506q18 111 69 208.5t129 172t187 117.5t235 43q115 0 211 -45t156.5 -127t82.5 -195.5t-10 -251.5h-790q7 -99 73 -157t160 -58q153 0 256 106l172 -147q-176 -200 -479 -197q-221 2 -354 157.5t-98 373.5zM379 621h489q-15 89 -71.5 137.5t-143.5 48.5 q-89 0 -161 -50.5t-113 -135.5zM422 1364q8 48 49.5 83.5t91.5 35.5t80.5 -35.5t22.5 -83.5q-7 -51 -48.5 -87t-91.5 -36q-51 0 -81.5 36t-22.5 87zM795 1364q8 50 49.5 84.5t93.5 34.5q50 0 79.5 -35t22.5 -84q-9 -51 -49.5 -87t-89.5 -36q-52 0 -83 36t-23 87z" />
<glyph unicode="&#xec;" horiz-adv-x="442" d="M18 0l160 1014h260l-159 -1014h-261zM92 1479h230l112 -293h-190z" />
<glyph unicode="&#xed;" horiz-adv-x="442" d="M18 0l160 1014h260l-159 -1014h-261zM242 1186l188 293h225l-223 -293h-190z" />
<glyph unicode="&#xee;" horiz-adv-x="442" d="M18 0l160 1014h260l-159 -1014h-261zM18 1188l263 287h208l168 -287h-202l-90 160l-144 -160h-203z" />
<glyph unicode="&#xef;" horiz-adv-x="442" d="M18 0l160 1014h260l-159 -1014h-261zM51 1333q8 48 49.5 83.5t92.5 35.5q50 0 80 -35.5t22 -83.5q-7 -51 -48 -87t-91 -36q-51 0 -81.5 36t-23.5 87zM424 1333q8 50 49.5 84.5t93.5 34.5q50 0 80 -35t23 -84q-9 -51 -50 -87t-90 -36q-52 0 -83 36t-23 87z" />
<glyph unicode="&#xf0;" horiz-adv-x="1165" d="M66 487q22 139 109 256t216 184.5t268 67.5q86 0 159 -34.5t120 -92.5q-35 142 -136.5 238t-258.5 139l-105 -164l-180 74l84 131q-108 12 -236 12l39 238q169 0 328 -43l102 158l168 -86l-94 -148q255 -119 376.5 -359t68.5 -571q-16 -104 -68 -196.5t-129 -160.5 t-180.5 -108t-216.5 -40q-138 0 -245.5 67.5t-158.5 184t-30 253.5zM332 498q-15 -104 45.5 -177t163.5 -73q105 0 189 73t101 177q15 106 -44.5 179t-163.5 73q-106 0 -190 -73t-101 -179z" />
<glyph unicode="&#xf1;" horiz-adv-x="1255" d="M41 0l162 1014h291l-25 -150q122 160 334 160q82 0 154 -33.5t123.5 -95t73 -157.5t3.5 -212l-82 -526h-291l80 504q21 133 -28 204.5t-150 71.5q-107 0 -178.5 -71.5t-93.5 -196.5l-82 -512h-291zM485 1323l99 102q26 -47 86 -47q41 0 111.5 31t117.5 31q38 0 70 -17 t48.5 -36t37.5 -50l-92 -98q-32 47 -95 47q-36 0 -108 -30.5t-119 -30.5q-52 0 -95.5 30.5t-60.5 67.5z" />
<glyph unicode="&#xf2;" horiz-adv-x="1210" d="M70 506q36 222 212.5 375t405.5 153q105 0 196.5 -41.5t154 -112t91 -169t11.5 -205.5q-18 -109 -70 -205t-131 -167.5t-187.5 -112.5t-232.5 -41q-141 0 -252.5 70t-166 192t-31.5 264zM352 506q-17 -104 46.5 -178t166.5 -74q108 0 192 73.5t101 178.5q17 106 -45 180 t-168 74q-107 0 -191.5 -74t-101.5 -180zM467 1479h229l113 -293h-191z" />
<glyph unicode="&#xf3;" horiz-adv-x="1210" d="M70 506q36 222 212.5 375t405.5 153q105 0 196.5 -41.5t154 -112t91 -169t11.5 -205.5q-18 -109 -70 -205t-131 -167.5t-187.5 -112.5t-232.5 -41q-141 0 -252.5 70t-166 192t-31.5 264zM352 506q-17 -104 46.5 -178t166.5 -74q108 0 192 73.5t101 178.5q17 106 -45 180 t-168 74q-107 0 -191.5 -74t-101.5 -180zM616 1186l189 293h225l-223 -293h-191z" />
<glyph unicode="&#xf4;" horiz-adv-x="1210" d="M70 506q36 222 212.5 375t405.5 153q105 0 196.5 -41.5t154 -112t91 -169t11.5 -205.5q-18 -109 -70 -205t-131 -167.5t-187.5 -112.5t-232.5 -41q-141 0 -252.5 70t-166 192t-31.5 264zM352 506q-17 -104 46.5 -178t166.5 -74q108 0 192 73.5t101 178.5q17 106 -45 180 t-168 74q-107 0 -191.5 -74t-101.5 -180zM393 1188l262 287h209l168 -287h-203l-90 160l-143 -160h-203z" />
<glyph unicode="&#xf5;" horiz-adv-x="1210" d="M70 506q36 222 212.5 375t405.5 153q105 0 196.5 -41.5t154 -112t91 -169t11.5 -205.5q-18 -109 -70 -205t-131 -167.5t-187.5 -112.5t-232.5 -41q-141 0 -252.5 70t-166 192t-31.5 264zM352 506q-17 -104 46.5 -178t166.5 -74q108 0 192 73.5t101 178.5q17 106 -45 180 t-168 74q-107 0 -191.5 -74t-101.5 -180zM451 1323l98 102q26 -47 86 -47q41 0 111.5 31t117.5 31q38 0 70 -17t48.5 -36t37.5 -50l-92 -98q-32 47 -94 47q-36 0 -108.5 -30.5t-119.5 -30.5q-52 0 -95 30t-60 68z" />
<glyph unicode="&#xf6;" horiz-adv-x="1210" d="M70 506q36 222 212.5 375t405.5 153q105 0 196.5 -41.5t154 -112t91 -169t11.5 -205.5q-18 -109 -70 -205t-131 -167.5t-187.5 -112.5t-232.5 -41q-141 0 -252.5 70t-166 192t-31.5 264zM352 506q-17 -104 46.5 -178t166.5 -74q108 0 192 73.5t101 178.5q17 106 -45 180 t-168 74q-107 0 -191.5 -74t-101.5 -180zM426 1333q8 48 49.5 83.5t91.5 35.5t80.5 -35.5t22.5 -83.5q-7 -51 -48.5 -87t-91.5 -36q-51 0 -81.5 36t-22.5 87zM799 1333q8 50 49.5 84.5t93.5 34.5q50 0 79.5 -35t22.5 -84q-9 -51 -49.5 -87t-89.5 -36q-52 0 -83 36t-23 87z " />
<glyph unicode="&#xf7;" horiz-adv-x="1054" d="M90 565l41 252h889l-39 -252h-891zM358 328q7 58 55.5 99.5t108.5 41.5q58 0 93.5 -41t27.5 -100q-11 -59 -59.5 -100.5t-106.5 -41.5q-60 0 -95 41.5t-24 100.5zM473 1055q9 59 56.5 100t107.5 41q58 0 93.5 -41t27.5 -100q-11 -60 -58.5 -102t-107.5 -42t-94.5 42 t-24.5 102z" />
<glyph unicode="&#xf8;" horiz-adv-x="1210" d="M70 506q36 222 212.5 375t405.5 153q98 0 174 -33l78 123h121l-109 -170q106 -71 159 -190t30 -258q-18 -109 -70 -205t-131 -167.5t-187.5 -112.5t-232.5 -41q-96 0 -172 30l-88 -135h-121l117 182q-106 72 -157.5 191.5t-28.5 257.5zM352 506q-9 -59 9 -111t57 -86 l284 445q-27 6 -57 6q-107 0 -191.5 -74t-101.5 -180zM508 260q27 -6 57 -6q108 0 192 73.5t101 178.5q19 127 -65 201z" />
<glyph unicode="&#xf9;" horiz-adv-x="1253" d="M98 487l82 527h291l-80 -504q-23 -133 26 -205t150 -72q108 0 180 71t95 198l82 512h288l-161 -1014h-289l24 147q-126 -157 -342 -157q-81 0 -151 33t-121 93.5t-71.5 157t-2.5 213.5zM487 1487h230l112 -293h-190z" />
<glyph unicode="&#xfa;" horiz-adv-x="1253" d="M98 487l82 527h291l-80 -504q-23 -133 26 -205t150 -72q108 0 180 71t95 198l82 512h288l-161 -1014h-289l24 147q-126 -157 -342 -157q-81 0 -151 33t-121 93.5t-71.5 157t-2.5 213.5zM637 1194l188 293h226l-224 -293h-190z" />
<glyph unicode="&#xfb;" horiz-adv-x="1253" d="M98 487l82 527h291l-80 -504q-23 -133 26 -205t150 -72q108 0 180 71t95 198l82 512h288l-161 -1014h-289l24 147q-126 -157 -342 -157q-81 0 -151 33t-121 93.5t-71.5 157t-2.5 213.5zM412 1196l262 287h209l168 -287h-203l-90 160l-144 -160h-202z" />
<glyph unicode="&#xfc;" horiz-adv-x="1253" d="M98 487l82 527h291l-80 -504q-23 -133 26 -205t150 -72q108 0 180 71t95 198l82 512h288l-161 -1014h-289l24 147q-126 -157 -342 -157q-81 0 -151 33t-121 93.5t-71.5 157t-2.5 213.5zM446 1341q8 48 49.5 83.5t92.5 35.5q50 0 80 -35.5t22 -83.5q-7 -51 -48 -86.5 t-91 -35.5q-51 0 -81.5 35.5t-23.5 86.5zM819 1341q8 50 50 84.5t94 34.5q50 0 79.5 -35t22.5 -84q-9 -51 -49.5 -86.5t-89.5 -35.5q-52 0 -83.5 35.5t-23.5 86.5z" />
<glyph unicode="&#xfd;" horiz-adv-x="1153" d="M-49 -512l45 283q226 0 315 168l49 81l-272 994h293l158 -656l358 656h328l-658 -1174q-112 -197 -258.5 -274.5t-357.5 -77.5zM561 1194l189 293h225l-223 -293h-191z" />
<glyph unicode="&#xfe;" d="M-35 -512l324 2048h289l-105 -664q63 71 154 111.5t196 40.5q93 0 174 -38t137 -104.5t80.5 -164.5t6.5 -211q-24 -152 -105 -270t-200.5 -182t-256.5 -64q-103 0 -182 41t-119 112l-104 -655h-289zM418 506q-19 -109 43.5 -185.5t171.5 -76.5q108 0 194 76t105 186 q17 109 -45 185.5t-172 76.5q-107 0 -193.5 -76.5t-103.5 -185.5z" />
<glyph unicode="&#xff;" horiz-adv-x="1153" d="M-49 -512l45 283q226 0 315 168l49 81l-272 994h293l158 -656l358 656h328l-658 -1174q-112 -197 -258.5 -274.5t-357.5 -77.5zM371 1341q8 48 49.5 83.5t91.5 35.5t80 -35.5t22 -83.5q-7 -51 -48 -86.5t-91 -35.5q-51 0 -81.5 35.5t-22.5 86.5zM743 1341q8 50 50 84.5 t94 34.5q50 0 79.5 -35t22.5 -84q-9 -51 -49.5 -86.5t-89.5 -35.5q-52 0 -83.5 35.5t-23.5 86.5z" />
<glyph unicode="&#x152;" horiz-adv-x="1945" d="M102 717q25 154 98 284.5t186.5 227t273.5 151t348 54.5h1015l-41 -273h-712l-49 -305h690l-41 -272h-690l-52 -312h713l-43 -272h-1016l179 1130q-226 0 -373.5 -115t-177.5 -298q-28 -183 82.5 -297.5t336.5 -114.5l-47 -305q-229 0 -396 94t-242 257.5t-42 365.5z" />
<glyph unicode="&#x153;" horiz-adv-x="2013" d="M70 506q36 222 212.5 375t405.5 153q114 0 211.5 -48t159.5 -132q180 180 438 180q116 0 210.5 -42t155.5 -120t81.5 -189t-11.5 -249h-796q6 -101 72 -159t165 -58q165 0 264 102l160 -143q-167 -196 -469 -196q-115 0 -210 46.5t-156 129.5q-84 -84 -197.5 -130 t-245.5 -46q-141 0 -252.5 70t-166 192t-31.5 264zM352 506q-17 -104 46.5 -178t166.5 -74q108 0 192 73.5t101 178.5q17 106 -45 180t-168 74q-107 0 -191.5 -74t-101.5 -180zM1169 602h525q-12 95 -74.5 148t-157.5 53q-96 0 -174.5 -54.5t-118.5 -146.5z" />
<glyph unicode="&#x178;" horiz-adv-x="1347" d="M158 1434h329l232 -557l387 557h377l-647 -879l-88 -555h-306l88 555zM535 1753q8 48 49.5 83.5t91.5 35.5t80 -35.5t22 -83.5q-7 -51 -48 -87t-91 -36q-51 0 -81.5 36t-22.5 87zM907 1753q8 50 50 84.5t94 34.5q50 0 79.5 -35t22.5 -84q-9 -51 -49.5 -87t-89.5 -36 q-52 0 -83.5 36t-23.5 87z" />
<glyph unicode="&#x2c6;" horiz-adv-x="641" d="M109 1188l262 287h209l168 -287h-203l-90 160l-144 -160h-202z" />
<glyph unicode="&#x2dc;" horiz-adv-x="565" d="M129 1323l98 102q26 -47 86 -47q41 0 112 31t118 31q38 0 70 -17.5t48 -36t37 -49.5l-92 -98q-32 47 -94 47q-36 0 -108 -30.5t-119 -30.5q-52 0 -95.5 30.5t-60.5 67.5z" />
<glyph unicode="&#x2000;" horiz-adv-x="956" />
<glyph unicode="&#x2001;" horiz-adv-x="1913" />
<glyph unicode="&#x2002;" horiz-adv-x="956" />
<glyph unicode="&#x2003;" horiz-adv-x="1913" />
<glyph unicode="&#x2004;" horiz-adv-x="637" />
<glyph unicode="&#x2005;" horiz-adv-x="478" />
<glyph unicode="&#x2006;" horiz-adv-x="318" />
<glyph unicode="&#x2007;" horiz-adv-x="318" />
<glyph unicode="&#x2008;" horiz-adv-x="239" />
<glyph unicode="&#x2009;" horiz-adv-x="382" />
<glyph unicode="&#x200a;" horiz-adv-x="106" />
<glyph unicode="&#x2010;" horiz-adv-x="886" d="M49 426l41 264h766l-43 -264h-764z" />
<glyph unicode="&#x2011;" horiz-adv-x="886" d="M49 426l41 264h766l-43 -264h-764z" />
<glyph unicode="&#x2012;" horiz-adv-x="886" d="M49 426l41 264h766l-43 -264h-764z" />
<glyph unicode="&#x2013;" horiz-adv-x="1028" d="M49 426l41 264h905l-41 -264h-905z" />
<glyph unicode="&#x2014;" horiz-adv-x="1402" d="M49 426l41 264h1280l-43 -264h-1278z" />
<glyph unicode="&#x2018;" horiz-adv-x="434" d="M139 989l164 445h217l-145 -445h-236z" />
<glyph unicode="&#x2019;" horiz-adv-x="434" d="M139 989l146 445h235l-164 -445h-217z" />
<glyph unicode="&#x201a;" horiz-adv-x="464" d="M-70 -317l148 444h264l-164 -444h-248z" />
<glyph unicode="&#x201c;" horiz-adv-x="780" d="M139 989l164 445h217l-145 -445h-236zM483 989l164 445h219l-147 -445h-236z" />
<glyph unicode="&#x201d;" horiz-adv-x="780" d="M139 989l146 445h235l-164 -445h-217zM483 989l148 445h235l-164 -445h-219z" />
<glyph unicode="&#x201e;" horiz-adv-x="837" d="M-70 -317l148 444h264l-164 -444h-248zM305 -317l146 444h266l-164 -444h-248z" />
<glyph unicode="&#x2022;" horiz-adv-x="536" d="M61 504q14 80 84.5 139t155.5 59q84 0 135 -59t39 -139q-13 -86 -83.5 -146.5t-155.5 -60.5t-136.5 60.5t-38.5 146.5z" />
<glyph unicode="&#x2026;" horiz-adv-x="1366" d="M4 139q9 60 61 104t115 44t100.5 -44t28.5 -104q-9 -64 -60.5 -108.5t-115.5 -44.5q-63 0 -101 44.5t-28 108.5zM588 139q11 60 63 104t115 44q67 0 108 -54q54 54 125 54q63 0 100.5 -44t28.5 -104q-9 -64 -60.5 -108.5t-115.5 -44.5q-71 0 -108 53q-56 -53 -125 -53 q-63 0 -101.5 44.5t-29.5 108.5z" />
<glyph unicode="&#x202f;" horiz-adv-x="382" />
<glyph unicode="&#x2039;" horiz-adv-x="645" d="M92 575l432 359l119 -139l-268 -220l190 -213l-153 -145z" />
<glyph unicode="&#x203a;" horiz-adv-x="647" d="M25 356l268 219l-193 213l156 146l319 -359l-432 -358z" />
<glyph unicode="&#x205f;" horiz-adv-x="478" />
<glyph unicode="&#x20ac;" horiz-adv-x="1644" d="M72 535l20 133h137l7 49q1 8 4 23.5t4 23.5h-135l20 133h156q94 247 307.5 402t490.5 155q218 0 365.5 -102.5t214.5 -280.5l-293 -139q-41 99 -130 158t-208 59q-128 0 -242.5 -69.5t-183.5 -182.5h395l-20 -133h-430q-8 -33 -10 -47l-6 -49h430l-21 -133h-395 q33 -113 125.5 -181.5t220.5 -68.5q121 0 230 61t178 162l251 -139q-126 -182 -302 -285.5t-402 -103.5q-157 0 -293 71.5t-222.5 199t-103.5 284.5h-159z" />
<glyph unicode="&#x2122;" horiz-adv-x="1030" d="M221 1450l15 86h380l-14 -86h-143l-56 -356h-94l58 356h-146zM578 1094l69 442h107l98 -252l180 252h115l-72 -442h-92l43 284l-147 -213h-82l-80 211l-45 -282h-94z" />
<glyph unicode="&#x25fc;" horiz-adv-x="1013" d="M0 0v1014h1014v-1014h-1014z" />
<glyph unicode="&#xfb01;" horiz-adv-x="1234" d="M84 764l39 250h180l2 16q20 124 69.5 219t111.5 150.5t141.5 90t150 46.5t146.5 12q151 0 303 -53l-80 -274q-104 49 -246 49q-39 0 -74.5 -6t-74.5 -22t-68.5 -41.5t-53 -68t-32.5 -98.5l-4 -20h627l-160 -1014h-291l121 764h-336l-121 -764h-291l121 764h-180z" />
<glyph unicode="&#xfb02;" horiz-adv-x="1396" d="M84 764l39 250h184l6 45q18 116 65 205t106 141.5t135 86t144.5 45t141.5 11.5q242 0 381 -151l-158 -991q-21 -138 119 -146q50 -4 90 8l-41 -250q-96 -22 -166 -22q-162 0 -243.5 94.5t-55.5 261.5l148 922q-46 14 -109 14q-95 0 -171 -54t-95 -171l-8 -49h201 l-39 -250h-201l-121 -764h-291l121 764h-182z" />
<glyph unicode="&#xfb03;" horiz-adv-x="1863" d="M84 764l39 250h180l2 16q15 90 43 165t64 127.5t82 93t93.5 65.5t102 40.5t103.5 21t102 5.5q73 0 155.5 -19.5t143.5 -60.5q130 80 328 80q65 0 150 -15t138 -34l-79 -278q-120 53 -232 53q-237 0 -274 -240l-4 -20h626l-159 -1014h-289l121 764h-338l-119 -764h-291 l121 764h-340l-121 -764h-289l121 764h-180zM592 1014h342l2 16q16 116 70 213q-67 31 -134 31q-239 0 -276 -240z" />
</font>
</defs>
</svg>
